<mxfile host="app.diagrams.net" modified="2023-10-28T15:29:04.204Z" agent="Mozilla/5.0 (Windows NT 10.0; Win64; x64) AppleWebKit/537.36 (KHTML, like Gecko) Chrome/116.0.0.0 Safari/537.36 OPR/102.0.0.0" etag="0DYcYFRJqidy8-_gMvwp" version="22.0.8" type="github">
  <diagram id="C5RBs43oDa-KdzZeNtuy" name="Page-1">
    <mxGraphModel dx="1187" dy="1807" grid="1" gridSize="10" guides="1" tooltips="1" connect="1" arrows="1" fold="1" page="1" pageScale="1" pageWidth="827" pageHeight="1169" math="0" shadow="0">
      <root>
        <mxCell id="WIyWlLk6GJQsqaUBKTNV-0" />
        <mxCell id="WIyWlLk6GJQsqaUBKTNV-1" parent="WIyWlLk6GJQsqaUBKTNV-0" />
        <mxCell id="WARdkBpTIBHFgrGH82ov-0" value="Utilisateur" style="swimlane;whiteSpace=wrap;html=1;" vertex="1" parent="WIyWlLk6GJQsqaUBKTNV-1">
          <mxGeometry x="60" y="50" width="180" height="240" as="geometry" />
        </mxCell>
        <mxCell id="WARdkBpTIBHFgrGH82ov-1" value="idUtilisateur&lt;br&gt;nom&lt;br&gt;prenom&lt;br&gt;pseudo&lt;br&gt;password&lt;br&gt;email&lt;br&gt;dateNaissance&lt;br&gt;role&lt;br&gt;adresse1&lt;br style=&quot;border-color: var(--border-color);&quot;&gt;CodePostal&lt;br style=&quot;border-color: var(--border-color);&quot;&gt;ville&lt;br style=&quot;border-color: var(--border-color);&quot;&gt;Pays" style="whiteSpace=wrap;html=1;" vertex="1" parent="WARdkBpTIBHFgrGH82ov-0">
          <mxGeometry x="30" y="30" width="120" height="190" as="geometry" />
        </mxCell>
        <mxCell id="WARdkBpTIBHFgrGH82ov-3" value="Produit" style="swimlane;whiteSpace=wrap;html=1;" vertex="1" parent="WIyWlLk6GJQsqaUBKTNV-1">
          <mxGeometry x="370" y="80" width="170" height="150" as="geometry" />
        </mxCell>
        <mxCell id="WARdkBpTIBHFgrGH82ov-4" value="idProduit&lt;br&gt;idCategorie&lt;br&gt;idFournisseur&lt;br&gt;idType&lt;br&gt;nom&lt;br&gt;description&lt;br&gt;photo" style="whiteSpace=wrap;html=1;" vertex="1" parent="WARdkBpTIBHFgrGH82ov-3">
          <mxGeometry x="25" y="30" width="120" height="110" as="geometry" />
        </mxCell>
        <mxCell id="WARdkBpTIBHFgrGH82ov-5" value="DeclinaisonProduit" style="swimlane;whiteSpace=wrap;html=1;" vertex="1" parent="WIyWlLk6GJQsqaUBKTNV-1">
          <mxGeometry x="590" y="80" width="170" height="150" as="geometry" />
        </mxCell>
        <mxCell id="WARdkBpTIBHFgrGH82ov-6" value="IdDeclinaisonProduit&lt;br&gt;idProduit&lt;br&gt;idTaille&lt;br&gt;idCouleur&lt;br&gt;idPrix" style="whiteSpace=wrap;html=1;" vertex="1" parent="WARdkBpTIBHFgrGH82ov-5">
          <mxGeometry x="25" y="30" width="120" height="110" as="geometry" />
        </mxCell>
        <mxCell id="WARdkBpTIBHFgrGH82ov-7" value="CouleurProduit" style="swimlane;whiteSpace=wrap;html=1;" vertex="1" parent="WIyWlLk6GJQsqaUBKTNV-1">
          <mxGeometry x="800" y="80" width="170" height="70" as="geometry" />
        </mxCell>
        <mxCell id="WARdkBpTIBHFgrGH82ov-8" value="idCouleur&lt;br&gt;nom" style="whiteSpace=wrap;html=1;" vertex="1" parent="WARdkBpTIBHFgrGH82ov-7">
          <mxGeometry x="25" y="30" width="120" height="30" as="geometry" />
        </mxCell>
        <mxCell id="WARdkBpTIBHFgrGH82ov-9" value="Categorie" style="swimlane;whiteSpace=wrap;html=1;" vertex="1" parent="WIyWlLk6GJQsqaUBKTNV-1">
          <mxGeometry x="370" y="260" width="170" height="110" as="geometry" />
        </mxCell>
        <mxCell id="WARdkBpTIBHFgrGH82ov-10" value="idCategorie&lt;br&gt;nom&lt;br&gt;photo" style="whiteSpace=wrap;html=1;" vertex="1" parent="WARdkBpTIBHFgrGH82ov-9">
          <mxGeometry x="25" y="30" width="120" height="70" as="geometry" />
        </mxCell>
        <mxCell id="WARdkBpTIBHFgrGH82ov-11" value="TypeProduit" style="swimlane;whiteSpace=wrap;html=1;" vertex="1" parent="WIyWlLk6GJQsqaUBKTNV-1">
          <mxGeometry x="370" y="400" width="170" height="90" as="geometry" />
        </mxCell>
        <mxCell id="WARdkBpTIBHFgrGH82ov-12" value="idType&lt;br&gt;idCategorie&lt;br&gt;nom" style="whiteSpace=wrap;html=1;" vertex="1" parent="WARdkBpTIBHFgrGH82ov-11">
          <mxGeometry x="25" y="30" width="120" height="50" as="geometry" />
        </mxCell>
        <mxCell id="WARdkBpTIBHFgrGH82ov-13" value="TailleProduit" style="swimlane;whiteSpace=wrap;html=1;" vertex="1" parent="WIyWlLk6GJQsqaUBKTNV-1">
          <mxGeometry x="590" y="260" width="170" height="90" as="geometry" />
        </mxCell>
        <mxCell id="WARdkBpTIBHFgrGH82ov-14" value="idTaille&lt;br&gt;idCategorie&lt;br&gt;taille" style="whiteSpace=wrap;html=1;" vertex="1" parent="WARdkBpTIBHFgrGH82ov-13">
          <mxGeometry x="25" y="30" width="120" height="50" as="geometry" />
        </mxCell>
        <mxCell id="WARdkBpTIBHFgrGH82ov-15" value="PrixProduit" style="swimlane;whiteSpace=wrap;html=1;" vertex="1" parent="WIyWlLk6GJQsqaUBKTNV-1">
          <mxGeometry x="590" y="380" width="170" height="170" as="geometry" />
        </mxCell>
        <mxCell id="WARdkBpTIBHFgrGH82ov-16" value="idPrix&lt;br&gt;IdDeclinaisonProduit&lt;br&gt;dateDebut&lt;br&gt;dateFin&lt;br&gt;prixBrut&lt;br&gt;remise&lt;br&gt;prixNet" style="whiteSpace=wrap;html=1;" vertex="1" parent="WARdkBpTIBHFgrGH82ov-15">
          <mxGeometry x="25" y="30" width="120" height="120" as="geometry" />
        </mxCell>
        <mxCell id="WARdkBpTIBHFgrGH82ov-17" value="Fournisseur" style="swimlane;whiteSpace=wrap;html=1;" vertex="1" parent="WIyWlLk6GJQsqaUBKTNV-1">
          <mxGeometry x="370" y="-110" width="170" height="150" as="geometry" />
        </mxCell>
        <mxCell id="WARdkBpTIBHFgrGH82ov-18" value="idFournisseur&lt;br&gt;nom&lt;br&gt;adresse1&lt;br&gt;adresse2&lt;br&gt;CodePostal&lt;br&gt;ville&lt;br&gt;Pays" style="whiteSpace=wrap;html=1;" vertex="1" parent="WARdkBpTIBHFgrGH82ov-17">
          <mxGeometry x="25" y="30" width="120" height="110" as="geometry" />
        </mxCell>
        <mxCell id="WARdkBpTIBHFgrGH82ov-19" value="Avis" style="swimlane;whiteSpace=wrap;html=1;" vertex="1" parent="WIyWlLk6GJQsqaUBKTNV-1">
          <mxGeometry x="70" y="320" width="170" height="120" as="geometry" />
        </mxCell>
        <mxCell id="WARdkBpTIBHFgrGH82ov-20" value="idAvis&lt;br&gt;idProduit&lt;br&gt;idUtilisateur&lt;br&gt;avis&lt;br&gt;note" style="whiteSpace=wrap;html=1;" vertex="1" parent="WARdkBpTIBHFgrGH82ov-19">
          <mxGeometry x="25" y="30" width="120" height="80" as="geometry" />
        </mxCell>
        <mxCell id="WARdkBpTIBHFgrGH82ov-21" value="Commandes" style="swimlane;whiteSpace=wrap;html=1;" vertex="1" parent="WIyWlLk6GJQsqaUBKTNV-1">
          <mxGeometry x="70" y="500" width="170" height="140" as="geometry" />
        </mxCell>
        <mxCell id="WARdkBpTIBHFgrGH82ov-22" value="idCommande&lt;br&gt;idUtilisateur&lt;br&gt;date(et heure)&lt;br&gt;total&lt;br&gt;modePaiment" style="whiteSpace=wrap;html=1;" vertex="1" parent="WARdkBpTIBHFgrGH82ov-21">
          <mxGeometry x="25" y="30" width="120" height="100" as="geometry" />
        </mxCell>
        <mxCell id="WARdkBpTIBHFgrGH82ov-23" value="CommandesLignes" style="swimlane;whiteSpace=wrap;html=1;startSize=23;" vertex="1" parent="WIyWlLk6GJQsqaUBKTNV-1">
          <mxGeometry x="300" y="530" width="170" height="170" as="geometry" />
        </mxCell>
        <mxCell id="WARdkBpTIBHFgrGH82ov-24" value="idCommandeLigne&lt;br&gt;IdCommande&lt;br&gt;idDeclinaisonProduit&lt;br&gt;idPrix&lt;br&gt;quantite" style="whiteSpace=wrap;html=1;" vertex="1" parent="WARdkBpTIBHFgrGH82ov-23">
          <mxGeometry x="17.5" y="40" width="135" height="90" as="geometry" />
        </mxCell>
        <mxCell id="WARdkBpTIBHFgrGH82ov-26" value="" style="endArrow=none;html=1;rounded=0;entryX=0;entryY=0.25;entryDx=0;entryDy=0;exitX=0;exitY=0.5;exitDx=0;exitDy=0;" edge="1" parent="WIyWlLk6GJQsqaUBKTNV-1" source="WARdkBpTIBHFgrGH82ov-20" target="WARdkBpTIBHFgrGH82ov-1">
          <mxGeometry width="50" height="50" relative="1" as="geometry">
            <mxPoint x="20" y="143" as="sourcePoint" />
            <mxPoint x="510" y="330" as="targetPoint" />
            <Array as="points">
              <mxPoint x="20" y="390" />
              <mxPoint x="20" y="143" />
            </Array>
          </mxGeometry>
        </mxCell>
        <mxCell id="WARdkBpTIBHFgrGH82ov-27" value="" style="endArrow=none;html=1;rounded=0;entryX=0;entryY=0.25;entryDx=0;entryDy=0;exitX=0;exitY=0.25;exitDx=0;exitDy=0;" edge="1" parent="WIyWlLk6GJQsqaUBKTNV-1" source="WARdkBpTIBHFgrGH82ov-22" target="WARdkBpTIBHFgrGH82ov-1">
          <mxGeometry width="50" height="50" relative="1" as="geometry">
            <mxPoint x="105" y="400" as="sourcePoint" />
            <mxPoint x="100" y="153" as="targetPoint" />
            <Array as="points">
              <mxPoint x="30" y="550" />
              <mxPoint x="30" y="400" />
              <mxPoint x="30" y="153" />
            </Array>
          </mxGeometry>
        </mxCell>
        <mxCell id="WARdkBpTIBHFgrGH82ov-28" value="" style="endArrow=none;html=1;rounded=0;exitX=0.998;exitY=0.438;exitDx=0;exitDy=0;exitPerimeter=0;entryX=0;entryY=0.25;entryDx=0;entryDy=0;" edge="1" parent="WIyWlLk6GJQsqaUBKTNV-1" source="WARdkBpTIBHFgrGH82ov-22" target="WARdkBpTIBHFgrGH82ov-24">
          <mxGeometry width="50" height="50" relative="1" as="geometry">
            <mxPoint x="460" y="480" as="sourcePoint" />
            <mxPoint x="510" y="430" as="targetPoint" />
          </mxGeometry>
        </mxCell>
        <mxCell id="WARdkBpTIBHFgrGH82ov-29" value="" style="endArrow=none;html=1;rounded=0;entryX=0;entryY=0;entryDx=0;entryDy=0;exitX=0.998;exitY=0.338;exitDx=0;exitDy=0;exitPerimeter=0;" edge="1" parent="WIyWlLk6GJQsqaUBKTNV-1" source="WARdkBpTIBHFgrGH82ov-20" target="WARdkBpTIBHFgrGH82ov-4">
          <mxGeometry width="50" height="50" relative="1" as="geometry">
            <mxPoint x="460" y="380" as="sourcePoint" />
            <mxPoint x="510" y="330" as="targetPoint" />
            <Array as="points">
              <mxPoint x="290" y="370" />
              <mxPoint x="290" y="110" />
            </Array>
          </mxGeometry>
        </mxCell>
        <mxCell id="WARdkBpTIBHFgrGH82ov-30" value="" style="endArrow=none;html=1;rounded=0;entryX=0;entryY=0.25;entryDx=0;entryDy=0;" edge="1" parent="WIyWlLk6GJQsqaUBKTNV-1" target="WARdkBpTIBHFgrGH82ov-4">
          <mxGeometry width="50" height="50" relative="1" as="geometry">
            <mxPoint x="395" y="310" as="sourcePoint" />
            <mxPoint x="510" y="330" as="targetPoint" />
            <Array as="points">
              <mxPoint x="320" y="300" />
              <mxPoint x="320" y="138" />
            </Array>
          </mxGeometry>
        </mxCell>
        <mxCell id="WARdkBpTIBHFgrGH82ov-31" value="" style="endArrow=none;html=1;rounded=0;entryX=0;entryY=0.25;entryDx=0;entryDy=0;exitX=0;exitY=0.25;exitDx=0;exitDy=0;" edge="1" parent="WIyWlLk6GJQsqaUBKTNV-1" source="WARdkBpTIBHFgrGH82ov-12" target="WARdkBpTIBHFgrGH82ov-10">
          <mxGeometry width="50" height="50" relative="1" as="geometry">
            <mxPoint x="395" y="430" as="sourcePoint" />
            <mxPoint x="510" y="330" as="targetPoint" />
            <Array as="points">
              <mxPoint x="340" y="443" />
              <mxPoint x="340" y="308" />
            </Array>
          </mxGeometry>
        </mxCell>
        <mxCell id="WARdkBpTIBHFgrGH82ov-32" value="" style="endArrow=none;html=1;rounded=0;entryX=1.018;entryY=0.174;entryDx=0;entryDy=0;entryPerimeter=0;exitX=1;exitY=0.5;exitDx=0;exitDy=0;" edge="1" parent="WIyWlLk6GJQsqaUBKTNV-1" source="WARdkBpTIBHFgrGH82ov-24" target="WARdkBpTIBHFgrGH82ov-16">
          <mxGeometry width="50" height="50" relative="1" as="geometry">
            <mxPoint x="440" y="600" as="sourcePoint" />
            <mxPoint x="510" y="330" as="targetPoint" />
            <Array as="points">
              <mxPoint x="800" y="600" />
              <mxPoint x="800" y="427" />
            </Array>
          </mxGeometry>
        </mxCell>
        <mxCell id="WARdkBpTIBHFgrGH82ov-33" value="" style="endArrow=none;html=1;rounded=0;exitX=1;exitY=0.25;exitDx=0;exitDy=0;entryX=0;entryY=0;entryDx=0;entryDy=0;" edge="1" parent="WIyWlLk6GJQsqaUBKTNV-1" source="WARdkBpTIBHFgrGH82ov-24" target="WARdkBpTIBHFgrGH82ov-14">
          <mxGeometry width="50" height="50" relative="1" as="geometry">
            <mxPoint x="460" y="480" as="sourcePoint" />
            <mxPoint x="510" y="430" as="targetPoint" />
            <Array as="points">
              <mxPoint x="560" y="580" />
              <mxPoint x="560" y="290" />
            </Array>
          </mxGeometry>
        </mxCell>
        <mxCell id="WARdkBpTIBHFgrGH82ov-34" value="" style="endArrow=none;html=1;rounded=0;entryX=0;entryY=0.5;entryDx=0;entryDy=0;exitX=1;exitY=0.25;exitDx=0;exitDy=0;" edge="1" parent="WIyWlLk6GJQsqaUBKTNV-1" source="WARdkBpTIBHFgrGH82ov-10" target="WARdkBpTIBHFgrGH82ov-14">
          <mxGeometry width="50" height="50" relative="1" as="geometry">
            <mxPoint x="460" y="480" as="sourcePoint" />
            <mxPoint x="510" y="430" as="targetPoint" />
          </mxGeometry>
        </mxCell>
        <mxCell id="WARdkBpTIBHFgrGH82ov-35" value="" style="endArrow=none;html=1;rounded=0;exitX=0.005;exitY=0.362;exitDx=0;exitDy=0;entryX=0;entryY=0.25;entryDx=0;entryDy=0;exitPerimeter=0;" edge="1" parent="WIyWlLk6GJQsqaUBKTNV-1" source="WARdkBpTIBHFgrGH82ov-4" target="WARdkBpTIBHFgrGH82ov-18">
          <mxGeometry width="50" height="50" relative="1" as="geometry">
            <mxPoint x="460" y="180" as="sourcePoint" />
            <mxPoint x="320" y="-30" as="targetPoint" />
            <Array as="points">
              <mxPoint x="350" y="150" />
              <mxPoint x="340" y="-15" />
            </Array>
          </mxGeometry>
        </mxCell>
        <mxCell id="WARdkBpTIBHFgrGH82ov-36" value="" style="endArrow=none;html=1;rounded=0;entryX=0;entryY=0.5;entryDx=0;entryDy=0;exitX=0;exitY=0.5;exitDx=0;exitDy=0;" edge="1" parent="WIyWlLk6GJQsqaUBKTNV-1" source="WARdkBpTIBHFgrGH82ov-4" target="WARdkBpTIBHFgrGH82ov-12">
          <mxGeometry width="50" height="50" relative="1" as="geometry">
            <mxPoint x="460" y="380" as="sourcePoint" />
            <mxPoint x="510" y="330" as="targetPoint" />
            <Array as="points">
              <mxPoint x="310" y="165" />
              <mxPoint x="310" y="450" />
            </Array>
          </mxGeometry>
        </mxCell>
        <mxCell id="WARdkBpTIBHFgrGH82ov-38" value="" style="endArrow=none;html=1;rounded=0;entryX=1.018;entryY=0.122;entryDx=0;entryDy=0;entryPerimeter=0;exitX=0.005;exitY=0.165;exitDx=0;exitDy=0;exitPerimeter=0;" edge="1" parent="WIyWlLk6GJQsqaUBKTNV-1" source="WARdkBpTIBHFgrGH82ov-6" target="WARdkBpTIBHFgrGH82ov-4">
          <mxGeometry width="50" height="50" relative="1" as="geometry">
            <mxPoint x="460" y="380" as="sourcePoint" />
            <mxPoint x="510" y="330" as="targetPoint" />
          </mxGeometry>
        </mxCell>
        <mxCell id="WARdkBpTIBHFgrGH82ov-39" value="" style="endArrow=none;html=1;rounded=0;entryX=0;entryY=0.25;entryDx=0;entryDy=0;exitX=0.998;exitY=0.696;exitDx=0;exitDy=0;exitPerimeter=0;" edge="1" parent="WIyWlLk6GJQsqaUBKTNV-1" source="WARdkBpTIBHFgrGH82ov-6" target="WARdkBpTIBHFgrGH82ov-8">
          <mxGeometry width="50" height="50" relative="1" as="geometry">
            <mxPoint x="460" y="380" as="sourcePoint" />
            <mxPoint x="510" y="330" as="targetPoint" />
            <Array as="points">
              <mxPoint x="780" y="187" />
              <mxPoint x="780" y="120" />
            </Array>
          </mxGeometry>
        </mxCell>
        <mxCell id="WARdkBpTIBHFgrGH82ov-40" value="" style="endArrow=none;html=1;rounded=0;entryX=1;entryY=0.5;entryDx=0;entryDy=0;exitX=1;exitY=0.25;exitDx=0;exitDy=0;" edge="1" parent="WIyWlLk6GJQsqaUBKTNV-1" source="WARdkBpTIBHFgrGH82ov-14" target="WARdkBpTIBHFgrGH82ov-6">
          <mxGeometry width="50" height="50" relative="1" as="geometry">
            <mxPoint x="460" y="380" as="sourcePoint" />
            <mxPoint x="510" y="330" as="targetPoint" />
            <Array as="points">
              <mxPoint x="800" y="300" />
              <mxPoint x="800" y="160" />
            </Array>
          </mxGeometry>
        </mxCell>
        <mxCell id="WARdkBpTIBHFgrGH82ov-41" value="" style="endArrow=none;html=1;rounded=0;entryX=0.025;entryY=0.355;entryDx=0;entryDy=0;entryPerimeter=0;exitX=1;exitY=0.25;exitDx=0;exitDy=0;" edge="1" parent="WIyWlLk6GJQsqaUBKTNV-1" source="WARdkBpTIBHFgrGH82ov-10" target="WARdkBpTIBHFgrGH82ov-6">
          <mxGeometry width="50" height="50" relative="1" as="geometry">
            <mxPoint x="460" y="380" as="sourcePoint" />
            <mxPoint x="510" y="330" as="targetPoint" />
            <Array as="points">
              <mxPoint x="560" y="270" />
              <mxPoint x="560" y="160" />
            </Array>
          </mxGeometry>
        </mxCell>
      </root>
    </mxGraphModel>
  </diagram>
</mxfile>
